<?xml version="1.0" encoding="UTF-8"?>
<svg version="1.1" xmlns="http://www.w3.org/2000/svg" width="181" height="314">
<path d="M0 0 C2.13671875 -0.31640625 2.13671875 -0.31640625 5 0 C7.13661839 1.6297241 8.92596534 3.18296942 10.8125 5.0625 C11.87428539 6.08017319 12.93678605 7.09710064 14 8.11328125 C14.51304688 8.61037598 15.02609375 9.1074707 15.5546875 9.61962891 C17.41701674 11.39827917 19.35399614 13.07838635 21.3125 14.75 C27.0340928 19.72684002 32.19199349 25.1049 37.12890625 30.85546875 C38.4234965 32.33924756 39.74598626 33.7989722 41.08984375 35.23828125 C46.92291472 41.50191282 51.90053088 48.12812761 56.73388672 55.16894531 C57.97103394 56.95810925 59.23477557 58.72562108 60.50390625 60.4921875 C79.45310504 87.31652224 90.10996035 119.94632743 85.125 152.83764648 C81.51563589 173.65023627 71.8065222 192.10158049 58 208 C57.34 207.67 56.68 207.34 56 207 C56.2165625 205.35064453 56.2165625 205.35064453 56.4375 203.66796875 C58.71782327 185.78415342 58.95103423 173.19688013 48 158 C44.56809008 153.35739065 44.56809008 153.35739065 40 150 C39.75121094 150.6909375 39.50242187 151.381875 39.24609375 152.09375 C37.80490141 155.45502618 36.0057351 158.40240364 34.0625 161.5 C33.37285156 162.6034375 32.68320313 163.706875 31.97265625 164.84375 C30.74355006 166.81031991 29.50326172 168.76999965 28.24609375 170.71875 C26.76031076 173.00557173 26.76031076 173.00557173 27 176 C26.34 176 25.68 176 25 176 C24.814375 176.99 24.814375 176.99 24.625 178 C24 181 24 181 22.9375 184.5625 C20.93101974 192.60362165 20.70634887 201.70079309 25 209 C28.00483681 213.2094786 31.26300451 217.17782136 34.83203125 220.921875 C42.7979782 229.33736749 48.09251359 239.9972537 48.25 251.625 C48.27578125 252.77226562 48.3015625 253.91953125 48.328125 255.1015625 C48.21984375 256.05804688 48.1115625 257.01453125 48 258 C47.01 258.66 46.02 259.32 45 260 C44.68289062 259.10539062 44.36578125 258.21078125 44.0390625 257.2890625 C38.80597611 243.72929721 30.03004599 236.510938 18.34375 228.37109375 C10.64806953 222.97149442 4.82120243 217.7063475 1 209 C0.68160156 208.30261719 0.36320312 207.60523438 0.03515625 206.88671875 C-4.77113264 194.77132693 -2.00205901 180.67934481 2.84570312 168.95458984 C6.65335137 160.52481234 11.3623752 152.56013718 15.98828125 144.5625 C21.67392903 134.59801998 26.47216514 124.55664088 29.89453125 113.59765625 C30.25933594 112.74042969 30.62414062 111.88320312 31 111 C34 110 34 110 37.27734375 111.55078125 C41.20126567 113.95543317 44.36070723 116.90502609 47.5625 120.1875 C48.12606201 120.75686279 48.68962402 121.32622559 49.27026367 121.9128418 C53.46152813 126.2354443 57.02586554 130.74433773 60 136 C58.76947511 127.86384289 56.20855647 120.55853218 53 113 C52.59136719 112.00871094 52.18273437 111.01742187 51.76171875 109.99609375 C45.80579702 96.80170668 34.73709412 83.58671982 21.18359375 77.796875 C20.46300781 77.53390625 19.74242188 77.2709375 19 77 C18.67 78.98 18.34 80.96 18 83 C17.34 83 16.68 83 16 83 C15.90783203 83.54599854 15.81566406 84.09199707 15.72070312 84.65454102 C14.55816298 90.70427074 12.47172973 95.57020382 9.5 100.9375 C9.05930176 101.75524902 8.61860352 102.57299805 8.16455078 103.41552734 C5.53742482 108.26969512 2.83602934 113.0815839 0.12963867 117.8918457 C-14.41223704 143.77519599 -26.72116874 171.19790825 -19.5625 201.5625 C-15.89550977 214.09999124 -6.93738033 227.70841311 4 235 C4 235.66 4 236.32 4 237 C4.59006836 237.27312012 5.18013672 237.54624023 5.78808594 237.82763672 C7.93627854 238.96622622 9.56022818 240.16853628 11.390625 241.7578125 C12.32563843 242.56641724 12.32563843 242.56641724 13.27954102 243.39135742 C13.92979248 243.96345947 14.58004395 244.53556152 15.25 245.125 C15.92023193 245.71321533 16.59046387 246.30143066 17.28100586 246.9074707 C19.1947458 248.59688437 21.09955207 250.29565932 23 252 C23.84175781 252.75410156 24.68351562 253.50820312 25.55078125 254.28515625 C34.82847478 263.05843149 39.82414109 273.72982374 40.5 286.5 C40.30236961 295.31199029 37.96909816 306.06180368 34 314 C32.68 314 31.36 314 30 314 C29.91363281 313.17757813 29.82726562 312.35515625 29.73828125 311.5078125 C27.69881693 295.30436203 19.47181897 284.94373971 7.125 274.8125 C2.43407869 271.22445988 -2.42974749 267.88767556 -7.30078125 264.55078125 C-20.41601705 255.53924035 -32.86770529 246.43316754 -44 235 C-44.79470703 234.27296875 -44.79470703 234.27296875 -45.60546875 233.53125 C-57.98337261 221.94575058 -64.31799936 205.7656444 -65.1484375 189.00390625 C-65.61193114 153.36124544 -50.73324697 122.09597459 -34.36669922 91.37255859 C-29.26128361 81.76925194 -24.20473531 72.09288316 -19.9140625 62.09375 C-19.27163509 60.62220688 -18.59663625 59.16466515 -17.8984375 57.71875 C-10.57227312 42.40470316 -4.03240748 24.73842662 -2.375 7.75 C-2.03835092 4.38350925 -1.57513699 2.84784767 0 0 Z " fill="#D9A61E" transform="translate(77,0)"/>
<path d="M0 0 C0.99 0.33 1.98 0.66 3 1 C2.7834375 1.87398437 2.7834375 1.87398437 2.5625 2.765625 C0.46143917 12.04531035 -1.03634529 22.438213 4 31 C7.00483681 35.2094786 10.26300451 39.17782136 13.83203125 42.921875 C21.7979782 51.33736749 27.09251359 61.9972537 27.25 73.625 C27.27578125 74.77226562 27.3015625 75.91953125 27.328125 77.1015625 C27.21984375 78.05804688 27.1115625 79.01453125 27 80 C26.01 80.66 25.02 81.32 24 82 C23.68289062 81.10539062 23.36578125 80.21078125 23.0390625 79.2890625 C17.80597611 65.72929721 9.03004599 58.510938 -2.65625 50.37109375 C-10.34906147 44.97350742 -16.18505564 39.70704947 -20 31 C-20.31839844 30.29101562 -20.63679688 29.58203125 -20.96484375 28.8515625 C-23.40522049 22.62129193 -23.30230844 16.6171959 -23 10 C-22.34 10 -21.68 10 -21 10 C-21 14.95 -21 19.9 -21 25 C-20.34 25 -19.68 25 -19 25 C-19 26.65 -19 28.3 -19 30 C-17.02 30.66 -15.04 31.32 -13 32 C-13.061875 32.763125 -13.12375 33.52625 -13.1875 34.3125 C-13.24402891 37.00449489 -13.24402891 37.00449489 -11.6875 38.75 C-9.90853321 40.20303079 -9.90853321 40.20303079 -7 41 C-6.67 40.34 -6.34 39.68 -6 39 C-5.67 39.99 -5.34 40.98 -5 42 C-4.54625 41.175 -4.0925 40.35 -3.625 39.5 C-3.08875 38.675 -2.5525 37.85 -2 37 C-1.34 37 -0.68 37 0 37 C0.77215245 33.75695973 1.26477087 31.6796143 0.03515625 28.5234375 C-1.46146771 23.4292684 -1.24979671 18.52882679 -1.1875 13.25 C-1.18685547 12.19683594 -1.18621094 11.14367187 -1.18554688 10.05859375 C-1.14061993 2.28123985 -1.14061993 2.28123985 0 0 Z " fill="#D9AA2B" transform="translate(98,178)"/>
<path d="M0 0 C1.32 0 2.64 0 4 0 C4.268125 0.763125 4.53625 1.52625 4.8125 2.3125 C5.78012225 4.96476581 5.78012225 4.96476581 7.4375 6.375 C9.81198036 8.84445957 10.72018506 11.85863605 12 15 C12.33 15.33 12.66 15.66 13 16 C13.23287008 17.68183948 13.41264166 19.3712416 13.5625 21.0625 C13.64628906 21.98160156 13.73007813 22.90070313 13.81640625 23.84765625 C13.87699219 24.55792969 13.93757812 25.26820313 14 26 C15.32 26.33 16.64 26.66 18 27 C19.37432457 30.81756824 18.67975039 34.07255329 18 38 C18.66 38 19.32 38 20 38 C20.06058594 37.11957031 20.12117188 36.23914063 20.18359375 35.33203125 C20.26738281 34.17058594 20.35117188 33.00914062 20.4375 31.8125 C20.55931641 30.08966797 20.55931641 30.08966797 20.68359375 28.33203125 C20.95403812 25.48401829 21.37521747 22.78789518 22 20 C23.98 20 25.96 20 28 20 C28.12375 18.948125 28.2475 17.89625 28.375 16.8125 C28.91140782 13.54041229 29.63880035 10.99463924 31 8 C32.32 8 33.64 8 35 8 C31.91342245 24.42626901 21.79962887 39.56406373 11 52 C10.34 51.67 9.68 51.34 9 51 C9.2165625 49.35064453 9.2165625 49.35064453 9.4375 47.66796875 C11.76132281 29.4430011 11.59878635 17.65359215 1 2 C0.67 1.34 0.34 0.68 0 0 Z " fill="#DBAF32" transform="translate(124,156)"/>
<path d="M0 0 C0.25 7.625 0.25 7.625 -2 11 C-4.125 11.6875 -4.125 11.6875 -6 12 C-6.61875 11.195625 -7.2375 10.39125 -7.875 9.5625 C-9.74164041 6.96125481 -9.74164041 6.96125481 -12 6 C-12.2475 6.68707031 -12.495 7.37414062 -12.75 8.08203125 C-14.20675251 11.4826379 -16.04456731 14.55951619 -18 17.6875 C-18.35578125 18.26822266 -18.7115625 18.84894531 -19.078125 19.44726562 C-20.57663208 21.8655653 -21.98124569 23.98124569 -24 26 C-25.38235294 17.70588235 -25.38235294 17.70588235 -23 14 C-22.63215869 12.6757713 -22.28797019 11.34386088 -22 10 C-20.68 9.67 -19.36 9.34 -18 9 C-18 9.66 -18 10.32 -18 11 C-17.34 11 -16.68 11 -16 11 C-15.87625 10.195625 -15.7525 9.39125 -15.625 8.5625 C-15.41875 7.716875 -15.2125 6.87125 -15 6 C-12.29120665 4.64560332 -9.99066732 4.93498549 -7 5 C-7 4.01 -7 3.02 -7 2 C-4 0 -4 0 0 0 Z " fill="#D6AD36" transform="translate(129,144)"/>
<path d="M0 0 C7.42664316 6.75149378 12.51128243 15.67645028 18 24 C17.67 24.66 17.34 25.32 17 26 C16.01 25.34 15.02 24.68 14 24 C13.67 24.66 13.34 25.32 13 26 C10 21.25 10 21.25 10 19 C9.01 18.67 8.02 18.34 7 18 C7 17.34 7 16.68 7 16 C6.34 16 5.68 16 5 16 C4.67 16.99 4.34 17.98 4 19 C3.67 17.68 3.34 16.36 3 15 C2.01 15 1.02 15 0 15 C-0.07129099 10.72254046 -0.07233799 7.13616082 1 3 C0.67 2.01 0.34 1.02 0 0 Z " fill="#DEAD29" transform="translate(127,48)"/>
<path d="M0 0 C0.66 0 1.32 0 2 0 C2 0.99 2 1.98 2 3 C2.66 3 3.32 3 4 3 C4 4.98 4 6.96 4 9 C4.66 9 5.32 9 6 9 C6.33 6.69 6.66 4.38 7 2 C8.65 2 10.3 2 12 2 C11.61020794 8.55925943 10.57886807 13.94526627 8 20 C6.68 20 5.36 20 4 20 C3.87882812 19.14277344 3.75765625 18.28554688 3.6328125 17.40234375 C2.76144776 11.45695509 1.86184181 5.71851412 0 0 Z " fill="#CDAE3B" transform="translate(103,294)"/>
<path d="M0 0 C3.3 0 6.6 0 10 0 C9.67 0.99 9.34 1.98 9 3 C9.66 3.33 10.32 3.66 11 4 C11 4.99 11 5.98 11 7 C11.66 7 12.32 7 13 7 C13 7.66 13 8.32 13 9 C16.22515763 10.73662334 19.51329166 11.8905928 23 13 C23 14.32 23 15.64 23 17 C24.32 16.67 25.64 16.34 27 16 C27.0825 16.78375 27.165 17.5675 27.25 18.375 C27.70849401 21.1446618 27.70849401 21.1446618 30 22.125 C30.99 22.558125 30.99 22.558125 32 23 C32.495 24.485 32.495 24.485 33 26 C33.66 26.66 34.32 27.32 35 28 C35 28.99 35 29.98 35 31 C34.34 31 33.68 31 33 31 C31.51953125 29.27734375 31.51953125 29.27734375 29.8125 26.9375 C24.16687455 19.20286092 17.44570249 13.61889549 9.625 8.1875 C8.01035767 7.05979312 6.39823704 5.92846422 4.7890625 4.79296875 C4.08475098 4.3033667 3.38043945 3.81376465 2.65478516 3.30932617 C1 2 1 2 0 0 Z " fill="#D2AA3E" transform="translate(68,262)"/>
<path d="M0 0 C4.53353153 3.68431093 8.36348764 7.42838446 12 12 C12.66 12.66 13.32 13.32 14 14 C12.35 14 10.7 14 9 14 C8.67 14.99 8.34 15.98 8 17 C7.608125 16.484375 7.21625 15.96875 6.8125 15.4375 C5.9153125 14.7259375 5.9153125 14.7259375 5 14 C2.34533951 14.23043864 2.34533951 14.23043864 0 15 C-0.1875 12.125 -0.1875 12.125 0 9 C0.99 8.34 1.98 7.68 3 7 C1.35 7 -0.3 7 -2 7 C-1.34 4.69 -0.68 2.38 0 0 Z " fill="#D9AA2F" transform="translate(98,15)"/>
<path d="M0 0 C0.66 0 1.32 0 2 0 C2 0.99 2 1.98 2 3 C2.66 3 3.32 3 4 3 C5.231394 6.69418201 4.64432764 9.2056261 4 13 C4.66 13 5.32 13 6 13 C6 13.66 6 14.32 6 15 C6.99 15.33 7.98 15.66 9 16 C8.34 16.99 7.68 17.98 7 19 C5.5 17.625 5.5 17.625 4 16 C4 15.34 4 14.68 4 14 C2.88625 14 1.7725 14 0.625 14 C-1.25 14 -3.125 14 -5 14 C-5.99 14.495 -5.99 14.495 -7 15 C-7 5 -7 5 -5 2 C-2.69 5.3 -0.38 8.6 2 12 C1.34 8.04 0.68 4.08 0 0 Z " fill="#DBAC31" transform="translate(135,124)"/>
<path d="M0 0 C6.04433574 1.35997554 9.63494136 4.85651794 14 9 C11 10 11 10 8 9 C4.49798371 9 1.30660126 9.89779958 -2 11 C-3.22520264 14.00847418 -3.22520264 14.00847418 -4 17 C-4.66 17 -5.32 17 -6 17 C-4.33846988 11.14340094 -2.52958084 5.5409866 0 0 Z " fill="#DAAD33" transform="translate(109,110)"/>
<path d="M0 0 C0.66 0 1.32 0 2 0 C2 0.66 2 1.32 2 2 C2.99 1.67 3.98 1.34 5 1 C7.40119059 4.60178588 7.43771322 7.50866369 7.625 11.6875 C7.66367188 12.38939453 7.70234375 13.09128906 7.7421875 13.81445312 C7.8362334 15.54254655 7.9191968 17.27123675 8 19 C6.140625 18.78515625 6.140625 18.78515625 4 18 C0.4396112 12.36271773 -0.48360262 6.52863532 0 0 Z " fill="#DAAB29" transform="translate(116,238)"/>
<path d="M0 0 C0.79921875 0.20367187 1.5984375 0.40734375 2.421875 0.6171875 C3.02515625 0.78476563 3.6284375 0.95234375 4.25 1.125 C4.58 0.465 4.91 -0.195 5.25 -0.875 C5.25 0.115 5.25 1.105 5.25 2.125 C4.26 2.455 3.27 2.785 2.25 3.125 C2.889375 3.3725 3.52875 3.62 4.1875 3.875 C6.25 5.125 6.25 5.125 7 7.25 C7.12375 8.178125 7.12375 8.178125 7.25 9.125 C6.59 9.125 5.93 9.125 5.25 9.125 C5.58 10.775 5.91 12.425 6.25 14.125 C5.63125 13.465 5.0125 12.805 4.375 12.125 C0.34168309 8.06830155 -4.25211453 4.64470455 -8.75 1.125 C-5.45750312 -0.91393155 -3.7130065 -0.98285466 0 0 Z " fill="#DCAA26" transform="translate(113.75,80.875)"/>
<path d="M0 0 C0.33 0 0.66 0 1 0 C1.02717692 2.06242617 1.0464758 4.12495703 1.0625 6.1875 C1.07410156 7.33605469 1.08570312 8.48460937 1.09765625 9.66796875 C1.01127783 12.61520036 0.82198363 15.17216952 0 18 C-0.66 18.33 -1.32 18.66 -2 19 C-2.65213292 21.02463255 -2.65213292 21.02463255 -3 23 C-3.66 23 -4.32 23 -5 23 C-5.99 26.3 -6.98 29.6 -8 33 C-8.66 32.67 -9.32 32.34 -10 32 C-9.76812988 31.35039307 -9.53625977 30.70078613 -9.29736328 30.03149414 C-8.2344277 27.04374742 -7.17967294 24.05317292 -6.125 21.0625 C-5.76019531 20.04091797 -5.39539063 19.01933594 -5.01953125 17.96679688 C-2.92807625 12.01565673 -1.22615318 6.18884683 0 0 Z " fill="#D7A93C" transform="translate(72,20)"/>
<path d="M0 0 C5.91712679 4.15457839 11.01139933 8.77258334 16 14 C13 15 13 15 10 15 C9.5978125 14.0409375 9.5978125 14.0409375 9.1875 13.0625 C8.11332248 10.66868314 8.11332248 10.66868314 5 10 C4.34 9.67 3.68 9.34 3 9 C3 7.68 3 6.36 3 5 C2.34 5 1.68 5 1 5 C0.67 3.35 0.34 1.7 0 0 Z " fill="#DBA623" transform="translate(91,245)"/>
<path d="M0 0 C0.25 7.625 0.25 7.625 -2 11 C-4.125 11.6875 -4.125 11.6875 -6 12 C-6.309375 11.21625 -6.61875 10.4325 -6.9375 9.625 C-7.92875038 7.07669872 -7.92875038 7.07669872 -9 5 C-8.34 5 -7.68 5 -7 5 C-7 4.01 -7 3.02 -7 2 C-4 0 -4 0 0 0 Z " fill="#DDAC2B" transform="translate(129,144)"/>
<path d="M0 0 C0.33 0 0.66 0 1 0 C1.33 2.64 1.66 5.28 2 8 C0.35 8.33 -1.3 8.66 -3 9 C-3.13140381 9.58426758 -3.26280762 10.16853516 -3.39819336 10.77050781 C-3.9692054 12.88591632 -4.6920858 14.6960355 -5.62890625 16.671875 C-5.94150391 17.33574219 -6.25410156 17.99960938 -6.57617188 18.68359375 C-6.90166016 19.36550781 -7.22714844 20.04742187 -7.5625 20.75 C-7.89185547 21.44738281 -8.22121094 22.14476563 -8.56054688 22.86328125 C-9.37047712 24.5770467 -10.18480638 26.28873194 -11 28 C-11.66 28 -12.32 28 -13 28 C-12.05823262 23.75123194 -10.15938303 20.10071894 -8.1875 16.25 C-7.84396484 15.57195312 -7.50042969 14.89390625 -7.14648438 14.1953125 C-6.45375271 12.82804474 -5.75958408 11.46150405 -5.06396484 10.09570312 C-3.35961221 6.7386212 -1.6807088 3.36897135 0 0 Z " fill="#D5AD43" transform="translate(54,69)"/>
<path d="M0 0 C0.639375 0.66 1.27875 1.32 1.9375 2 C5.18518339 5.27584249 8.69968251 8.23806518 12.20703125 11.23046875 C12.79871094 11.81441406 13.39039062 12.39835938 14 13 C14 13.66 14 14.32 14 15 C12.88625 14.9690625 12.88625 14.9690625 11.75 14.9375 C8.7577566 14.90442293 8.7577566 14.90442293 5 16 C5 13.03 5 10.06 5 7 C4.01 6.67 3.02 6.34 2 6 C0.8125 2.9375 0.8125 2.9375 0 0 Z " fill="#D7A51F" transform="translate(67,222)"/>
<path d="M0 0 C1.32 0 2.64 0 4 0 C4.268125 0.763125 4.53625 1.52625 4.8125 2.3125 C5.78012225 4.96476581 5.78012225 4.96476581 7.4375 6.375 C9.81198036 8.84445957 10.72018506 11.85863605 12 15 C12.33 15.33 12.66 15.66 13 16 C13.07325168 18.86267567 13.09238205 21.700719 13.0625 24.5625 C13.05798828 25.36880859 13.05347656 26.17511719 13.04882812 27.00585938 C13.03700518 29.00393756 13.01906914 31.00197783 13 33 C12.67 33 12.34 33 12 33 C11.90203125 32.10539062 11.8040625 31.21078125 11.703125 30.2890625 C10.22352757 18.32473157 7.06029803 9.74321128 0 0 Z " fill="#CDAA42" transform="translate(124,156)"/>
<path d="M0 0 C0.99 0.33 1.98 0.66 3 1 C2.855625 1.58265625 2.71125 2.1653125 2.5625 2.765625 C0.31470323 12.69339409 -0.26715316 21.61226304 4 31 C4.33 31.99 4.66 32.98 5 34 C4.01 34 3.02 34 2 34 C-0.95048574 26.94086273 -1.40467328 20.65599132 -1.25 13.0625 C-1.24484375 12.02287109 -1.2396875 10.98324219 -1.234375 9.91210938 C-1.15524294 2.31048588 -1.15524294 2.31048588 0 0 Z " fill="#D0AD4A" transform="translate(98,178)"/>
<path d="M0 0 C1.32 0.66 2.64 1.32 4 2 C3.67 3.32 3.34 4.64 3 6 C2.34 6 1.68 6 1 6 C1.515625 6.598125 2.03125 7.19625 2.5625 7.8125 C3.036875 8.534375 3.51125 9.25625 4 10 C3.67 10.99 3.34 11.98 3 13 C1.35 13 -0.3 13 -2 13 C-2.33 10.69 -2.66 8.38 -3 6 C-2.34 6 -1.68 6 -1 6 C-1.0309375 4.7934375 -1.0309375 4.7934375 -1.0625 3.5625 C-1 1 -1 1 0 0 Z " fill="#D59E0D" transform="translate(20,147)"/>
<path d="M0 0 C0.66 0 1.32 0 2 0 C2 4.95 2 9.9 2 15 C2.66 15 3.32 15 4 15 C4 16.65 4 18.3 4 20 C4.66 20.33 5.32 20.66 6 21 C6 21.66 6 22.32 6 23 C6.66 23.33 7.32 23.66 8 24 C7.67 25.32 7.34 26.64 7 28 C1.23122708 18.65060941 -0.50370434 11.0255284 0 0 Z " fill="#CAAC49" transform="translate(75,188)"/>
<path d="M0 0 C3.34292611 3.1019945 5.76244801 6.43575362 8.25 10.25 C8.95640625 11.32765625 9.6628125 12.4053125 10.390625 13.515625 C10.92171875 14.33546875 11.4528125 15.1553125 12 16 C11.67 16.66 11.34 17.32 11 18 C10.01 17.34 9.02 16.68 8 16 C7.67 16.66 7.34 17.32 7 18 C4.51631809 14.38737177 3.42026101 11.14199842 2.47265625 6.9375 C1.88241674 4.5180058 0.99694957 2.27874188 0 0 Z " fill="#D4AE48" transform="translate(133,56)"/>
<path d="M0 0 C0.99 0.33 1.98 0.66 3 1 C2.57388649 2.75280733 2.13360733 4.50217435 1.6875 6.25 C1.44386719 7.22453125 1.20023438 8.1990625 0.94921875 9.203125 C0.00347644 11.98975665 -1.10708713 13.77304368 -3 16 C-4.04071646 11.52491924 -3.95999017 9.13775702 -2 5 C-1.7215625 3.88625 -1.7215625 3.88625 -1.4375 2.75 C-1 1 -1 1 0 0 Z " fill="#DAAA41" transform="translate(156,163)"/>
<path d="M0 0 C0.66 0 1.32 0 2 0 C2 0.99 2 1.98 2 3 C2.66 3 3.32 3 4 3 C5.231394 6.69418201 4.64432764 9.2056261 4 13 C4.66 13 5.32 13 6 13 C6 13.66 6 14.32 6 15 C6.99 15.33 7.98 15.66 9 16 C8.34 16.99 7.68 17.98 7 19 C5.5 17.625 5.5 17.625 4 16 C4 15.34 4 14.68 4 14 C2.68 13.67 1.36 13.34 0 13 C-0.33 11.68 -0.66 10.36 -1 9 C-0.01 9.99 0.98 10.98 2 12 C1.34 8.04 0.68 4.08 0 0 Z " fill="#D7A830" transform="translate(135,124)"/>
<path d="M0 0 C6.57142857 5.14285714 6.57142857 5.14285714 8 9 C6.35 9.33 4.7 9.66 3 10 C3 9.34 3 8.68 3 8 C1.35 7.67 -0.3 7.34 -2 7 C-2.33 6.01 -2.66 5.02 -3 4 C-2.34 3.67 -1.68 3.34 -1 3 C-0.67 2.01 -0.34 1.02 0 0 Z " fill="#D8AB36" transform="translate(119,38)"/>
<path d="M0 0 C1.32 0.99 2.64 1.98 4 3 C3.67 4.32 3.34 5.64 3 7 C4.32 7 5.64 7 7 7 C7.66 8.65 8.32 10.3 9 12 C5.65291949 10.45158425 2.75332488 8.50894136 -0.25 6.375 C-1.14203125 5.74335938 -2.0340625 5.11171875 -2.953125 4.4609375 C-3.62859375 3.97882813 -4.3040625 3.49671875 -5 3 C-4.360625 2.690625 -3.72125 2.38125 -3.0625 2.0625 C-1.06389179 1.1654837 -1.06389179 1.1654837 0 0 Z " fill="#D2AC35" transform="translate(53,246)"/>
<path d="M0 0 C7.98541477 6.5633546 7.98541477 6.5633546 10 10 C10 10.99 10 11.98 10 13 C6.43536632 11.33650428 3.78297485 9.5659497 2 6 C2.33 5.34 2.66 4.68 3 4 C1.35 4.33 -0.3 4.66 -2 5 C-1.34 3.35 -0.68 1.7 0 0 Z " fill="#D8A937" transform="translate(106,216)"/>
<path d="M0 0 C2.29108615 2.84252236 3.82632887 5.55282544 5.1875 8.9375 C5.53167969 9.77152344 5.87585938 10.60554688 6.23046875 11.46484375 C7.0345012 14.11366132 7.1427234 16.24888334 7 19 C6.01 17.68 5.02 16.36 4 15 C3.01 15.495 3.01 15.495 2 16 C2 13.36 2 10.72 2 8 C1.34 8 0.68 8 0 8 C0 5.36 0 2.72 0 0 Z " fill="#D4B041" transform="translate(150,84)"/>
<path d="M0 0 C2.87176063 4.30764095 2 8.91943924 2 14 C0.35 14 -1.3 14 -3 14 C-2.88512252 12.41590006 -2.75765492 10.83271037 -2.625 9.25 C-2.55539063 8.36828125 -2.48578125 7.4865625 -2.4140625 6.578125 C-2.00149945 4.00933618 -1.28839043 2.24158985 0 0 Z " fill="#D39F0F" transform="translate(29,124)"/>
<path d="M0 0 C2.5 2.3125 2.5 2.3125 5 5 C5 8.73120489 3.81968524 10.78055689 2 14 C1.01 14.495 1.01 14.495 0 15 C-0.07129099 10.72254046 -0.07233799 7.13616082 1 3 C0.67 2.01 0.34 1.02 0 0 Z " fill="#E2AE2C" transform="translate(127,48)"/>
<path d="M0 0 C0.99 0.33 1.98 0.66 3 1 C2.85892253 2.45880109 2.71197585 3.91703551 2.5625 5.375 C2.48128906 6.18710937 2.40007812 6.99921875 2.31640625 7.8359375 C2 10 2 10 1 12 C0.01 12 -0.98 12 -2 12 C-1 3.42857143 -1 3.42857143 0 0 Z " fill="#DEAB2E" transform="translate(110,302)"/>
<path d="M0 0 C4.42857143 5.14285714 4.42857143 5.14285714 5 9 C4.34 9 3.68 9 3 9 C3 9.66 3 10.32 3 11 C1.68 11.33 0.36 11.66 -1 12 C-1.02698189 10.37509046 -1.04638757 8.75005367 -1.0625 7.125 C-1.07410156 6.22007813 -1.08570313 5.31515625 -1.09765625 4.3828125 C-1 2 -1 2 0 0 Z " fill="#DBAE38" transform="translate(145,75)"/>
<path d="M0 0 C3.3 0 6.6 0 10 0 C9.67 0.99 9.34 1.98 9 3 C9.66 3.33 10.32 3.66 11 4 C11 4.99 11 5.98 11 7 C7.87691494 6.39196574 5.80748338 5.37985958 3.25 3.5 C2.63640625 3.0565625 2.0228125 2.613125 1.390625 2.15625 C0.93171875 1.7746875 0.4728125 1.393125 0 1 C0 0.67 0 0.34 0 0 Z " fill="#D2A92F" transform="translate(68,262)"/>
<path d="M0 0 C1.06546953 3.1964086 1.07427838 5.65747276 1 9 C0.195625 9.268125 -0.60875 9.53625 -1.4375 9.8125 C-2.283125 10.204375 -3.12875 10.59625 -4 11 C-4.33 11.99 -4.66 12.98 -5 14 C-5.66 14 -6.32 14 -7 14 C-5.23570801 9.02790438 -2.6060834 4.56561939 0 0 Z " fill="#D7AD3A" transform="translate(90,150)"/>
<path d="M0 0 C0.33 1.32 0.66 2.64 1 4 C0.34 4 -0.32 4 -1 4 C-1.0825 4.66 -1.165 5.32 -1.25 6 C-2.57796586 11.31186343 -4.37959546 15.9197303 -9 19 C-7.54073252 11.86580342 -3.7773022 6.15074075 0 0 Z " fill="#D7AE3D" transform="translate(38,101)"/>
<path d="M0 0 C2.0625 -0.375 2.0625 -0.375 5 0 C7.53572282 1.79177109 9.77174488 3.84238121 12 6 C9 7 9 7 5 7 C4.67 6.34 4.34 5.68 4 5 C4.33 4.01 4.66 3.02 5 2 C4.34 2 3.68 2 3 2 C2.67 2.66 2.34 3.32 2 4 C1.01 4 0.02 4 -1 4 C-0.67 2.68 -0.34 1.36 0 0 Z " fill="#D7AC36" transform="translate(77,0)"/>
<path d="M0 0 C1.65 0 3.3 0 5 0 C4.67 3.3 4.34 6.6 4 10 C2 8.375 2 8.375 0 6 C-0.25 2.75 -0.25 2.75 0 0 Z " fill="#D6A837" transform="translate(110,296)"/>
<path d="M0 0 C4 4.5 4 4.5 4 9 C3.34 9 2.68 9 2 9 C1.67 9.99 1.34 10.98 1 12 C1 11.34 1 10.68 1 10 C0.34 9.67 -0.32 9.34 -1 9 C-0.34 9 0.32 9 1 9 C1 8.01 1 7.02 1 6 C0.34 6 -0.32 6 -1 6 C-0.67 4.02 -0.34 2.04 0 0 Z " fill="#D9AF34" transform="translate(107,260)"/>
<path d="M0 0 C0.66 0.33 1.32 0.66 2 1 C2.99 0.67 3.98 0.34 5 0 C5.66 1.65 6.32 3.3 7 5 C5.3125 6.125 5.3125 6.125 3 7 C0.25 6.125 0.25 6.125 -2 5 C-1.34 3.35 -0.68 1.7 0 0 Z " fill="#D9A830" transform="translate(97,137)"/>
<path d="M0 0 C0.99 0 1.98 0 3 0 C3 1.32 3 2.64 3 4 C3.66 4 4.32 4 5 4 C4.67 5.32 4.34 6.64 4 8 C2.68 8.33 1.36 8.66 0 9 C0 6.03 0 3.06 0 0 Z " fill="#DEAE2A" transform="translate(139,128)"/>
<path d="M0 0 C-1.65 3.3 -3.3 6.6 -5 10 C-5.83449189 6.66203244 -6.46019653 3.39305036 -7 0 C-5 -1 -5 -1 0 0 Z " fill="#D4A933" transform="translate(87,99)"/>
<path d="M0 0 C2.31 1.98 4.62 3.96 7 6 C6 8 6 8 2.9375 9.125 C1.968125 9.41375 0.99875 9.7025 0 10 C0 6 0 6 2 4 C1.34 2.68 0.68 1.36 0 0 Z " fill="#D7AD39" transform="translate(112,30)"/>
<path d="M0 0 C1.5 1.375 1.5 1.375 3 3 C3 3.66 3 4.32 3 5 C3.66 5 4.32 5 5 5 C5 5.99 5 6.98 5 8 C5.66 8.33 6.32 8.66 7 9 C6.67 10.98 6.34 12.96 6 15 C4.33251253 12.49876879 3.10045639 10.22323643 1.875 7.5 C1.52179688 6.7265625 1.16859375 5.953125 0.8046875 5.15625 C0 3 0 3 0 0 Z " fill="#C9AC46" transform="translate(129,108)"/>
<path d="M0 0 C5.67532468 1.48051948 5.67532468 1.48051948 7.25 4 C7.4975 4.66 7.745 5.32 8 6 C8.66 6.66 9.32 7.32 10 8 C10 8.99 10 9.98 10 11 C9.34 11 8.68 11 8 11 C6.30859375 9.1015625 6.30859375 9.1015625 4.4375 6.625 C3.81746094 5.81289063 3.19742188 5.00078125 2.55859375 4.1640625 C1 2 1 2 0 0 Z " fill="#C8AC45" transform="translate(93,282)"/>
<path d="M0 0 C1.43410153 3.78819273 0.51009497 6.06521279 -0.9375 9.75 C-1.31777344 10.73484375 -1.69804688 11.7196875 -2.08984375 12.734375 C-2.39019531 13.48203125 -2.69054687 14.2296875 -3 15 C-3.66 15 -4.32 15 -5 15 C-3.97137215 9.55432314 -2.75385216 4.88182883 0 0 Z " fill="#D6AB45" transform="translate(82,165)"/>
<path d="M0 0 C1.4540625 0.0309375 1.4540625 0.0309375 2.9375 0.0625 C3.2675 1.0525 3.5975 2.0425 3.9375 3.0625 C3.174375 3.35125 2.41125 3.64 1.625 3.9375 C-1.21279308 5.02519013 -1.21279308 5.02519013 -4.0625 7.0625 C-4.10504356 5.06295254 -4.10330783 3.06208364 -4.0625 1.0625 C-3.0625 0.0625 -3.0625 0.0625 0 0 Z " fill="#E0B22A" transform="translate(156.0625,159.9375)"/>
<path d="M0 0 C2.25 0.875 2.25 0.875 4 2 C3.34 2 2.68 2 2 2 C2.99 2.99 3.98 3.98 5 5 C4.67 5.99 4.34 6.98 4 8 C1.36 6.02 -1.28 4.04 -4 2 C-2.68 1.34 -1.36 0.68 0 0 Z " fill="#D2AC3B" transform="translate(109,80)"/>
<path d="M0 0 C1.14926266 0.95421808 2.29430541 1.91352045 3.4375 2.875 C4.07558594 3.40867188 4.71367188 3.94234375 5.37109375 4.4921875 C7 6 7 6 8 8 C6.02 8 4.04 8 2 8 C1.34 5.36 0.68 2.72 0 0 Z " fill="#D2AA3F" transform="translate(99,252)"/>
<path d="M0 0 C5.875 3.625 5.875 3.625 7 7 C6.67 7.99 6.34 8.98 6 10 C5.34 10 4.68 10 4 10 C3.67 8.02 3.34 6.04 3 4 C2.01 3.67 1.02 3.34 0 3 C0 2.01 0 1.02 0 0 Z " fill="#DDAE2C" transform="translate(130,160)"/>
<path d="M0 0 C1.32168051 2.17688554 2.0131712 3.55217933 1.9375 6.125 C1 8 1 8 -1.5625 9.25 C-2.366875 9.4975 -3.17125 9.745 -4 10 C-2.66666667 6.66666667 -1.33333333 3.33333333 0 0 Z " fill="#D4AA3E" transform="translate(102,127)"/>
<path d="M0 0 C2 1 2 1 2.8125 3.1875 C3.05738591 6.86078864 1.73385769 8.80970185 0 12 C0 12.99 0 13.98 0 15 C-0.66 15 -1.32 15 -2 15 C-1.855625 14.01 -1.71125 13.02 -1.5625 12 C-0.99074821 8.00590535 -0.49180166 4.00467063 0 0 Z " fill="#D6B445" transform="translate(75,5)"/>
<path d="M0 0 C6.15234375 0.5859375 6.15234375 0.5859375 8 1 C8.33 1.66 8.66 2.32 9 3 C8.0625 5.125 8.0625 5.125 7 7 C5.83040013 6.02433888 4.66438823 5.044375 3.5 4.0625 C2.8503125 3.51722656 2.200625 2.97195312 1.53125 2.41015625 C1.0259375 1.94480469 0.520625 1.47945312 0 1 C0 0.67 0 0.34 0 0 Z " fill="#D3AB3A" transform="translate(102,232)"/>
<path d="M0 0 C0.99 0 1.98 0 3 0 C2.88637738 1.4800841 2.75877092 2.95910074 2.625 4.4375 C2.52058594 5.67306641 2.52058594 5.67306641 2.4140625 6.93359375 C2.27742188 7.61550781 2.14078125 8.29742187 2 9 C1.01 9.495 1.01 9.495 0 10 C0 6.7 0 3.4 0 0 Z " fill="#DBA114" transform="translate(52,196)"/>
<path d="M0 0 C-0.33 1.98 -0.66 3.96 -1 6 C-1.66 6 -2.32 6 -3 6 C-3.33 6.99 -3.66 7.98 -4 9 C-4 7.35 -4 5.7 -4 4 C-4.99 4 -5.98 4 -7 4 C-6.67 3.01 -6.34 2.02 -6 1 C-3.90006779 0.25486277 -2.22568901 0 0 0 Z " fill="#C9A63A" transform="translate(105,170)"/>
<path d="M0 0 C2.4375 0.125 2.4375 0.125 5 1 C6.3125 3.5625 6.3125 3.5625 7 6 C5.68 5.34 4.36 4.68 3 4 C2.67 4.66 2.34 5.32 2 6 C1.01 4.35 0.02 2.7 -1 1 C-0.67 0.67 -0.34 0.34 0 0 Z " fill="#DEAC38" transform="translate(138,68)"/>
<path d="M0 0 C0.33 0 0.66 0 1 0 C1.75 2.75 1.75 2.75 2 6 C0.0625 8.375 0.0625 8.375 -2 10 C-3.05236973 6.65155086 -3.20005388 5.40920111 -1.625 2.1875 C-1.08875 1.465625 -0.5525 0.74375 0 0 Z " fill="#D5AD2F" transform="translate(60,56)"/>
<path d="M0 0 C2.475 0.495 2.475 0.495 5 1 C5 1.99 5 2.98 5 4 C6.98 4.66 8.96 5.32 11 6 C11 6.99 11 7.98 11 9 C8.03469503 7.64199529 5.70868729 6.07571737 3.25 3.9375 C2.63640625 3.41027344 2.0228125 2.88304687 1.390625 2.33984375 C0.93171875 1.89769531 0.4728125 1.45554688 0 1 C0 0.67 0 0.34 0 0 Z " fill="#CDAB42" transform="translate(85,219)"/>
<path d="M0 0 C3.49084212 1.08336479 4.05521194 2.1047123 5.8125 5.4375 C7 9 7 9 6 12 C4.99466333 10.37829621 3.99588093 8.75252763 3 7.125 C2.443125 6.22007812 1.88625 5.31515625 1.3125 4.3828125 C0 2 0 2 0 0 Z " fill="#D2AB4C" transform="translate(17,211)"/>
<path d="M0 0 C0.33 0 0.66 0 1 0 C1.625 2.875 1.625 2.875 2 6 C1.34 6.66 0.68 7.32 0 8 C-0.6425235 10.06874034 -0.6425235 10.06874034 -1 12 C-1.66 12 -2.32 12 -3 12 C-2.49202991 7.6822542 -1.80317221 3.96697886 0 0 Z " fill="#D5B23D" transform="translate(20,141)"/>
<path d="M0 0 C0.66 0 1.32 0 2 0 C2 0.99 2 1.98 2 3 C2.66 3 3.32 3 4 3 C5.15941038 6.47823115 4.70820884 8.45895578 4 12 C1.57869669 9.57869669 1.47159496 8.19888623 0.875 4.875 C0.70742187 3.96492188 0.53984375 3.05484375 0.3671875 2.1171875 C0.24601563 1.41851562 0.12484375 0.71984375 0 0 Z " fill="#CDA745" transform="translate(135,124)"/>
<path d="M0 0 C0.99 0.33 1.98 0.66 3 1 C3 1.99 3 2.98 3 4 C2.34 4 1.68 4 1 4 C1 4.66 1 5.32 1 6 C-1.5 7.625 -1.5 7.625 -4 9 C-2.80100302 5.9168649 -1.52299523 2.93720508 0 0 Z " fill="#D69F10" transform="translate(37,106)"/>
<path d="M0 0 C1.16945792 0.80847729 2.33550461 1.62189112 3.5 2.4375 C4.47453125 3.11619141 4.47453125 3.11619141 5.46875 3.80859375 C5.9740625 4.20175781 6.479375 4.59492188 7 5 C7 5.33 7 5.66 7 6 C4.125 6.125 4.125 6.125 1 6 C0.34 5.34 -0.32 4.68 -1 4 C-0.625 1.875 -0.625 1.875 0 0 Z " fill="#D2AC34" transform="translate(91,9)"/>
<path d="M0 0 C2.475 0.495 2.475 0.495 5 1 C5 3.97 5 6.94 5 10 C4.34 9.67 3.68 9.34 3 9 C3 7.02 3 5.04 3 3 C2.01 2.67 1.02 2.34 0 2 C0 1.34 0 0.68 0 0 Z " fill="#D5A92F" transform="translate(80,209)"/>
<path d="M0 0 C0.33 0 0.66 0 1 0 C1 2.64 1 5.28 1 8 C1.99 8.33 2.98 8.66 4 9 C2.68 9.99 1.36 10.98 0 12 C-1.16063604 7.74433453 -0.76173392 4.3164922 0 0 Z " fill="#D2B148" transform="translate(134,196)"/>
<path d="M0 0 C0.66 0.33 1.32 0.66 2 1 C0.8905928 4.48670834 -0.26337666 7.77484237 -2 11 C-2.66 11 -3.32 11 -4 11 C-3.21681311 7.08406554 -1.60820142 3.63593365 0 0 Z " fill="#D8BA33" transform="translate(45,86)"/>
<path d="M0 0 C0.66 0.66 1.32 1.32 2 2 C1 5 1 5 -1.0625 6.1875 C-1.701875 6.455625 -2.34125 6.72375 -3 7 C-3.33 5.68 -3.66 4.36 -4 3 C-2.68 2.01 -1.36 1.02 0 0 Z " fill="#E3AD2B" transform="translate(141,172)"/>
<path d="M0 0 C2.475 0.495 2.475 0.495 5 1 C3.92598892 3.91517292 3.22189824 5.77810176 1 8 C0.67 5.36 0.34 2.72 0 0 Z " fill="#D9A83C" transform="translate(104,162)"/>
<path d="M0 0 C1.32 0.33 2.64 0.66 4 1 C4.33 2.98 4.66 4.96 5 7 C4.01 7.66 3.02 8.32 2 9 C2 7.02 2 5.04 2 3 C1.34 2.67 0.68 2.34 0 2 C0 1.34 0 0.68 0 0 Z " fill="#E2AE2F" transform="translate(132,106)"/>
<path d="M0 0 C2.31 0.33 4.62 0.66 7 1 C6.01 1.495 6.01 1.495 5 2 C5.33 3.65 5.66 5.3 6 7 C1.125 2.25 1.125 2.25 0 0 Z " fill="#D2AA3D" transform="translate(114,88)"/>
<path d="M0 0 C1.98 1.65 3.96 3.3 6 5 C3.33333333 5 0.66666667 5 -2 5 C-1.34 3.35 -0.68 1.7 0 0 Z " fill="#D0AD3E" transform="translate(106,216)"/>
<path d="M0 0 C2.64 1.98 5.28 3.96 8 6 C7.34 6.66 6.68 7.32 6 8 C5.67 7.34 5.34 6.68 5 6 C2.97536745 5.34786708 2.97536745 5.34786708 1 5 C0.67 3.35 0.34 1.7 0 0 Z " fill="#D0AC42" transform="translate(91,245)"/>
<path d="M0 0 C0.99 0.33 1.98 0.66 3 1 C2.67 2.32 2.34 3.64 2 5 C0.68 5 -0.64 5 -2 5 C-1.125 1.125 -1.125 1.125 0 0 Z " fill="#DBAF36" transform="translate(156,163)"/>
<path d="M0 0 C2.03833424 1.2739589 4.03852126 2.61061923 6 4 C6 4.66 6 5.32 6 6 C3.03 5.505 3.03 5.505 0 5 C0 3.35 0 1.7 0 0 Z " fill="#D3B03C" transform="translate(75,231)"/>
<path d="M0 0 C2.93200474 2.85276137 5.64315404 5.65079784 8 9 C4.68470727 8.01437243 3.25050621 7.34552581 1.1875 4.5 C0 2 0 2 0 0 Z " fill="#D2B148" transform="translate(67,222)"/>
<path d="M0 0 C0.33 0 0.66 0 1 0 C1.25 5.625 1.25 5.625 -1 9 C-1.66 9 -2.32 9 -3 9 C-2.01 6.03 -1.02 3.06 0 0 Z " fill="#DAAD3E" transform="translate(28,120)"/>
<path d="M0 0 C2.475 0.495 2.475 0.495 5 1 C4.67 2.65 4.34 4.3 4 6 C3.34 6 2.68 6 2 6 C2 5.01 2 4.02 2 3 C1.34 3 0.68 3 0 3 C0 2.01 0 1.02 0 0 Z " fill="#DFA92E" transform="translate(135,121)"/>
<path d="M0 0 C1.98 1.65 3.96 3.3 6 5 C5.01 5.33 4.02 5.66 3 6 C1.68 4.68 0.36 3.36 -1 2 C-0.67 1.34 -0.34 0.68 0 0 Z " fill="#D2AD3C" transform="translate(123,120)"/>
<path d="M0 0 C2.64 0 5.28 0 8 0 C7.67 1.65 7.34 3.3 7 5 C3.535 3.02 3.535 3.02 0 1 C0 0.67 0 0.34 0 0 Z " fill="#CFAE44" transform="translate(98,76)"/>
<path d="M0 0 C2.0625 0.4375 2.0625 0.4375 4 1 C3.01 1.495 3.01 1.495 2 2 C1.34227572 5.02934491 1.34227572 5.02934491 1 8 C0.34 8 -0.32 8 -1 8 C-1.04241723 5.66705225 -1.04092937 3.33297433 -1 1 C-0.67 0.67 -0.34 0.34 0 0 Z " fill="#C4A340" transform="translate(94,75)"/>
<path d="M0 0 C0.99 0.33 1.98 0.66 3 1 C4.1875 4.0625 4.1875 4.0625 5 7 C2.525 6.01 2.525 6.01 0 5 C0 3.35 0 1.7 0 0 Z " fill="#D4A412" transform="translate(66,224)"/>
<path d="M0 0 C2 3 2 3 2 6 C0.35 6.33 -1.3 6.66 -3 7 C-2.01 4.69 -1.02 2.38 0 0 Z " fill="#D7AB3D" transform="translate(94,142)"/>
<path d="M0 0 C0.99 0 1.98 0 3 0 C3 0.99 3 1.98 3 3 C3.66 3 4.32 3 5 3 C5 4.65 5 6.3 5 8 C2.74754119 5.31158141 1.11786042 3.35358125 0 0 Z " fill="#CDA944" transform="translate(122,97)"/>
<path d="M0 0 C2.5 2.3125 2.5 2.3125 5 5 C5 5.99 5 6.98 5 8 C2.20127563 5.47211993 0.54226981 3.79588866 0 0 Z " fill="#CBAE49" transform="translate(127,48)"/>
<path d="" fill="#000000" transform="translate(0,0)"/>
<path d="" fill="#000000" transform="translate(0,0)"/>
<path d="" fill="#000000" transform="translate(0,0)"/>
<path d="" fill="#000000" transform="translate(0,0)"/>
<path d="" fill="#000000" transform="translate(0,0)"/>
<path d="" fill="#000000" transform="translate(0,0)"/>
<path d="" fill="#000000" transform="translate(0,0)"/>
<path d="" fill="#000000" transform="translate(0,0)"/>
<path d="" fill="#000000" transform="translate(0,0)"/>
<path d="" fill="#000000" transform="translate(0,0)"/>
<path d="" fill="#000000" transform="translate(0,0)"/>
<path d="" fill="#000000" transform="translate(0,0)"/>
<path d="" fill="#000000" transform="translate(0,0)"/>
<path d="" fill="#000000" transform="translate(0,0)"/>
<path d="" fill="#000000" transform="translate(0,0)"/>
<path d="" fill="#000000" transform="translate(0,0)"/>
<path d="" fill="#000000" transform="translate(0,0)"/>
<path d="" fill="#000000" transform="translate(0,0)"/>
<path d="" fill="#000000" transform="translate(0,0)"/>
<path d="" fill="#000000" transform="translate(0,0)"/>
<path d="" fill="#000000" transform="translate(0,0)"/>
<path d="" fill="#000000" transform="translate(0,0)"/>
<path d="" fill="#000000" transform="translate(0,0)"/>
<path d="" fill="#000000" transform="translate(0,0)"/>
<path d="" fill="#000000" transform="translate(0,0)"/>
<path d="" fill="#000000" transform="translate(0,0)"/>
<path d="" fill="#000000" transform="translate(0,0)"/>
<path d="" fill="#000000" transform="translate(0,0)"/>
<path d="" fill="#000000" transform="translate(0,0)"/>
<path d="" fill="#000000" transform="translate(0,0)"/>
<path d="" fill="#000000" transform="translate(0,0)"/>
<path d="" fill="#000000" transform="translate(0,0)"/>
<path d="" fill="#000000" transform="translate(0,0)"/>
<path d="" fill="#000000" transform="translate(0,0)"/>
<path d="" fill="#000000" transform="translate(0,0)"/>
<path d="" fill="#000000" transform="translate(0,0)"/>
<path d="" fill="#000000" transform="translate(0,0)"/>
<path d="" fill="#000000" transform="translate(0,0)"/>
<path d="" fill="#000000" transform="translate(0,0)"/>
<path d="" fill="#000000" transform="translate(0,0)"/>
<path d="" fill="#000000" transform="translate(0,0)"/>
<path d="" fill="#000000" transform="translate(0,0)"/>
<path d="" fill="#000000" transform="translate(0,0)"/>
<path d="" fill="#000000" transform="translate(0,0)"/>
<path d="" fill="#000000" transform="translate(0,0)"/>
<path d="" fill="#000000" transform="translate(0,0)"/>
<path d="" fill="#000000" transform="translate(0,0)"/>
<path d="" fill="#000000" transform="translate(0,0)"/>
<path d="" fill="#000000" transform="translate(0,0)"/>
<path d="" fill="#000000" transform="translate(0,0)"/>
<path d="" fill="#000000" transform="translate(0,0)"/>
<path d="" fill="#000000" transform="translate(0,0)"/>
<path d="" fill="#000000" transform="translate(0,0)"/>
<path d="" fill="#000000" transform="translate(0,0)"/>
<path d="" fill="#000000" transform="translate(0,0)"/>
</svg>
